<svg width="56" height="56" viewBox="0 0 56 56" fill="none" xmlns="http://www.w3.org/2000/svg">
<g id="Car, Service, Parts/car-checkmark">
<g id="Group">
<path id="Path" d="M42.0057 32.6685C47.1625 32.6685 51.3429 36.8489 51.3429 42.0057C51.3429 47.1625 47.1625 51.3429 42.0057 51.3429C36.8489 51.3429 32.6685 47.1625 32.6685 42.0057C32.6685 36.8489 36.8489 32.6685 42.0057 32.6685" stroke="#171717" strokeWidth="2.5" stroke-linecap="round" stroke-linejoin="round"/>
<path id="Path_2" d="M45.1524 40.4348L41.2214 44.3775L38.8591 42.0058" stroke="#171717" strokeWidth="2.5" stroke-linecap="round" stroke-linejoin="round"/>
<path id="Path_3" d="M19.4192 26.7651H14.4751" stroke="#171717" strokeWidth="2.5" stroke-linecap="round" stroke-linejoin="round"/>
<path id="Path_4" d="M39.3283 26.7651H34.3843" stroke="#171717" strokeWidth="2.5" stroke-linecap="round" stroke-linejoin="round"/>
<path id="Path_5" d="M41.8003 19.349L46.742 16.877" stroke="#171717" strokeWidth="2.5" stroke-linecap="round" stroke-linejoin="round"/>
<path id="Path_6" d="M12.0029 19.349L7.05884 16.877" stroke="#171717" strokeWidth="2.5" stroke-linecap="round" stroke-linejoin="round"/>
<path id="Path_7" d="M18.8587 6.99121C16.5614 6.99145 14.5667 8.57333 14.043 10.8101L11.9421 19.7739L14.043 10.8101C14.5667 8.57333 16.5614 6.99145 18.8587 6.99121H34.9444C37.2414 6.99081 39.2358 8.5732 39.7577 10.8101L41.8586 19.7739" stroke="#171717" strokeWidth="2.5" stroke-linecap="round" stroke-linejoin="round"/>
<path id="Path_8" d="M46.742 27.9999V26.1558C46.742 22.5071 43.7869 19.5479 40.1383 19.5427H13.6743C11.92 19.5421 10.2373 20.2386 8.99659 21.4788C7.75589 22.7191 7.05884 24.4015 7.05884 26.1558V37.3371C7.05884 38.6263 8.10394 39.6714 9.39314 39.6714H14.6127C15.9019 39.6714 16.947 38.6263 16.947 37.3371V34.1788H27.9999" stroke="#171717" strokeWidth="2.5" stroke-linecap="round" stroke-linejoin="round"/>
</g>
</g>
</svg>
