<svg width="56" height="56" viewBox="0 0 56 56" fill="none" xmlns="http://www.w3.org/2000/svg">
<g id="Payments, Finance/hand-mobile-credit-card-pay-checkmark">
<g id="Group">
<path id="Path" d="M23.3333 23.3333H20.3192C19.2324 23.3333 18.1607 23.5863 17.1887 24.0723L15.8232 24.755C14.6325 25.3503 13.6362 26.2729 12.9513 27.4145L7 37.3333" stroke="#171717" strokeWidth="2.5" stroke-linecap="round" stroke-linejoin="round"/>
<path id="Path_2" d="M34.9999 8.16675H30.3333C26.4673 8.16675 23.3333 11.3008 23.3333 15.1667V35.0001" stroke="#171717" strokeWidth="2.5" stroke-linecap="round" stroke-linejoin="round"/>
<path id="Path_3" d="M30.3333 44.3333H41.9999C45.8659 44.3333 48.9999 41.1993 48.9999 37.3333V21" stroke="#171717" strokeWidth="2.5" stroke-linecap="round" stroke-linejoin="round"/>
<path id="Path_4" d="M18.6667 51.3334L25.0867 48.8647C26.9775 48.1377 28.5804 46.8151 29.6534 45.0969L36.7671 33.7054C37.6868 32.2327 37.4686 30.3201 36.2409 29.0924V29.0924C35.5169 28.3685 34.5273 27.974 33.5039 28.0013C32.4805 28.0287 31.5133 28.4755 30.8291 29.2371L25.651 35H21.0001" stroke="#171717" strokeWidth="2.5" stroke-linecap="round" stroke-linejoin="round"/>
<path id="Path_5" d="M41.5308 11.1999L44.3332 13.9999L48.9974 9.33325" stroke="#171717" strokeWidth="2.5" stroke-linecap="round" stroke-linejoin="round"/>
</g>
</g>
</svg>
