<svg width="91" height="66" viewBox="0 0 91 66" fill="none" xmlns="http://www.w3.org/2000/svg">
<mask id="path-1-inside-1_642_1522" fill="white">
<path d="M0 0H91V66H0V0Z"/>
</mask>
<path d="M90 0V66H92V0H90Z" fill="#BBBBBA" mask="url(#path-1-inside-1_642_1522)"/>
<path d="M52.96 59.3771L51 59.3771L51 64.6971L40.78 64.6971L40.78 62.9471L49.39 62.9471L49.39 60.5671L40.78 60.5671L40.78 58.8171L49.39 58.8171L49.39 57.7671L52.96 57.7671L52.96 59.3771ZM51 56.3165L40.78 56.3165L40.78 53.1805C40.78 52.1912 41.018 51.4072 41.494 50.8285C41.9607 50.2499 42.6 49.9605 43.412 49.9605C43.8693 49.9605 44.266 50.0632 44.602 50.2685C44.938 50.4739 45.1993 50.7539 45.386 51.1085C45.5727 51.4539 45.666 51.8552 45.666 52.3125L45.61 52.3125C45.6007 51.8179 45.694 51.3792 45.89 50.9965C46.0767 50.6045 46.3567 50.2965 46.73 50.0725C47.1033 49.8392 47.556 49.7225 48.088 49.7225C48.676 49.7225 49.1893 49.8579 49.628 50.1285C50.0667 50.3992 50.4073 50.7819 50.65 51.2765C50.8833 51.7619 51 52.3452 51 53.0265L51 56.3165ZM49.544 54.6085L49.544 53.1385C49.544 52.6252 49.4087 52.2239 49.138 51.9345C48.858 51.6359 48.48 51.4865 48.004 51.4865C47.528 51.4865 47.1453 51.6359 46.856 51.9345C46.5573 52.2239 46.408 52.6252 46.408 53.1385L46.408 54.6085L49.544 54.6085ZM44.994 54.6085L44.994 53.2085C44.994 52.7419 44.8727 52.3779 44.63 52.1165C44.378 51.8459 44.0373 51.7105 43.608 51.7105C43.1787 51.7105 42.8427 51.8459 42.6 52.1165C42.3573 52.3779 42.236 52.7419 42.236 53.2085L42.236 54.6085L44.994 54.6085ZM51 47.768L40.78 47.768L40.78 41.636L42.306 41.636L42.306 46.046L44.966 46.046L44.966 42.126L46.478 42.126L46.478 46.046L49.474 46.046L49.474 41.636L51 41.636L51 47.768ZM51 37.2875L42.404 37.2875L42.404 39.9615L40.78 39.9615L40.78 32.8495L42.404 32.8495L42.404 35.5235L51 35.5235L51 37.2875Z" fill="#1F1F1E"/>
</svg>
