<svg width="56" height="56" viewBox="0 0 56 56" fill="none" xmlns="http://www.w3.org/2000/svg">
<g id="Delivery/box-delivery-package-car-pin-location-group">
<g id="Group">
<path id="Path" d="M25.6667 7H14C10.134 7 7 10.134 7 14V16.3333" stroke="#171717" strokeWidth="2.5" stroke-linecap="round" stroke-linejoin="round"/>
<path id="Path_2" d="M39.6667 49H42.0001C45.8661 49 49.0001 45.866 49.0001 42V28" stroke="#171717" strokeWidth="2.5" stroke-linecap="round" stroke-linejoin="round"/>
<path id="Path_3" d="M28.7222 32.861H16.1111C14.9452 32.861 14 31.9158 14 30.7499V23.3333" stroke="#171717" strokeWidth="2.5" stroke-linecap="round" stroke-linejoin="round"/>
<circle id="Oval" cx="26.8333" cy="45.5" r="3.5" stroke="#171717" strokeWidth="2.5" stroke-linecap="round" stroke-linejoin="round"/>
<path id="Path_4" d="M7 23.3333H14.9444C18.2669 23.3333 21.3954 24.8975 23.3889 27.5555L25.9441 30.9625C26.3462 31.4986 26.8676 31.9337 27.467 32.2334L32.4203 34.7101C34.0013 35.5006 35 37.1165 35 38.8841V42.3499C35 44.0896 33.5897 45.4999 31.85 45.4999H30.3333" stroke="#171717" strokeWidth="2.5" stroke-linecap="round" stroke-linejoin="round"/>
<path id="Path_5" d="M23.3333 45.4999H7" stroke="#171717" strokeWidth="2.5" stroke-linecap="round" stroke-linejoin="round"/>
<path id="Path_6" d="M32.6667 12.8334V12.8334C32.6667 8.32309 36.3231 4.66675 40.8334 4.66675V4.66675C45.3437 4.66675 49.0001 8.32309 49.0001 12.8334V12.8334" stroke="#171717" strokeWidth="2.5" stroke-linecap="round" stroke-linejoin="round"/>
<path id="Path_7" d="M32.6667 12.8333C32.6667 16.7093 36.9976 20.8549 39.351 22.8226C40.2208 23.5032 41.4424 23.5036 42.3126 22.8234C44.6682 20.8559 49.0001 16.7098 49.0001 12.8333" stroke="#171717" strokeWidth="2.5" stroke-linecap="round" stroke-linejoin="round"/>
<path id="Path_8" d="M40.4194 12.4224L40.4204 12.4213C40.6479 12.1944 41.0162 12.1948 41.2433 12.4221C41.4704 12.6494 41.4702 13.0178 41.243 13.245C41.0158 13.4722 40.6475 13.4723 40.4201 13.2452C40.1928 13.0182 40.1925 12.6498 40.4194 12.4224" stroke="#171717" strokeWidth="2.5" stroke-linecap="round" stroke-linejoin="round"/>
</g>
</g>
</svg>
