<svg width="56" height="56" viewBox="0 0 56 56" fill="none" xmlns="http://www.w3.org/2000/svg">
<g id="Car, Service, Parts/car-key-protection">
<g id="Group">
<path id="Path" d="M19.2462 26.8327H14.5776" stroke="#171717" strokeWidth="2.5" stroke-linecap="round" stroke-linejoin="round"/>
<path id="Path_2" d="M41.7327 19.349L46.6744 16.877" stroke="#171717" strokeWidth="2.5" stroke-linecap="round" stroke-linejoin="round"/>
<path id="Path_3" d="M11.9353 19.349L6.99121 16.877" stroke="#171717" strokeWidth="2.5" stroke-linecap="round" stroke-linejoin="round"/>
<path id="Path_4" d="M41.8893 20.1929L39.6396 10.5945C39.1449 8.48369 37.2622 6.99121 35.0942 6.99121H18.5714C16.4034 6.99121 14.5207 8.4837 14.026 10.5945L11.7764 20.1929" stroke="#171717" strokeWidth="2.5" stroke-linecap="round" stroke-linejoin="round"/>
<path id="Path_5" d="M46.6744 27.9999V26.8328C46.6744 22.9651 43.5391 19.8298 39.6715 19.8298H13.9941C10.1265 19.8298 6.99121 22.9651 6.99121 26.8328V37.3371C6.99121 38.6263 8.03632 39.6714 9.32552 39.6714H14.545C15.8342 39.6714 16.8793 38.6263 16.8793 37.3371V33.8357H25.6657" stroke="#171717" strokeWidth="2.5" stroke-linecap="round" stroke-linejoin="round"/>
<path id="Path_6" d="M34.4192 26.8327H39.0878" stroke="#171717" strokeWidth="2.5" stroke-linecap="round" stroke-linejoin="round"/>
<path id="Path_7" d="M32.8953 41.3418L29.7684 44.4775C29.3842 44.8649 29.1681 45.3881 29.167 45.9337V48.1157C29.167 49.2534 30.0892 50.1758 31.2269 50.1758H33.4183C33.9652 50.1765 34.4896 49.9582 34.8745 49.5697L37.9908 46.4445" stroke="#171717" strokeWidth="2.5" stroke-linecap="round" stroke-linejoin="round"/>
<path id="Path_8" d="M32.8953 41.342C32.1354 38.2877 33.5062 35.1017 36.2465 33.5535C38.9867 32.0053 42.4231 32.4753 44.6471 34.7024C46.871 36.9294 47.3361 40.3665 45.7841 43.1046C44.232 45.8426 41.0441 47.209 37.9909 46.4448" stroke="#171717" strokeWidth="2.5" stroke-linecap="round" stroke-linejoin="round"/>
<path id="Path_9" d="M39.7883 39.6717C39.7882 39.7361 39.7359 39.7883 39.6715 39.7883C39.607 39.7882 39.5548 39.736 39.5548 39.6716C39.5548 39.6071 39.607 39.5549 39.6714 39.5548C39.7024 39.5548 39.7322 39.5671 39.7541 39.589C39.776 39.6109 39.7883 39.6407 39.7883 39.6717" stroke="#171717" strokeWidth="2.5" stroke-linecap="round" stroke-linejoin="round"/>
</g>
</g>
</svg>
