<svg width="91" height="74" viewBox="0 0 91 74" fill="none" xmlns="http://www.w3.org/2000/svg">
    <mask id="path-1-inside-1_642_1545" fill="white">
    <path d="M0 0H91V74H0V0Z"/>
    </mask>
    <path d="M90 0V74H92V0H90Z" fill="#BBBBBA" mask="url(#path-1-inside-1_642_1545)"/>
    <path d="M51.14 69.7303C51.14 70.3837 51.0187 70.9577 50.776 71.4523C50.524 71.9377 50.174 72.3157 49.726 72.5863C49.2687 72.8477 48.732 72.9783 48.116 72.9783L43.664 72.9783C43.0387 72.9783 42.502 72.8477 42.054 72.5863C41.606 72.3157 41.2607 71.9377 41.018 71.4523C40.766 70.9577 40.64 70.3837 40.64 69.7303C40.64 69.0677 40.766 68.4983 41.018 68.0223C41.2607 67.537 41.606 67.159 42.054 66.8883C42.502 66.6177 43.0387 66.4823 43.664 66.4823L43.664 68.2463C43.1787 68.2463 42.81 68.377 42.558 68.6383C42.306 68.8903 42.18 69.2543 42.18 69.7303C42.18 70.2063 42.306 70.575 42.558 70.8363C42.81 71.0977 43.174 71.2283 43.65 71.2283L48.116 71.2283C48.592 71.2283 48.9607 71.0977 49.222 70.8363C49.4833 70.575 49.614 70.2063 49.614 69.7303C49.614 69.2543 49.4833 68.8903 49.222 68.6383C48.9607 68.377 48.592 68.2463 48.116 68.2463L47.08 68.2463L47.08 69.9823L45.568 69.9823L45.568 66.4823L48.116 66.4823C48.732 66.4823 49.2687 66.6177 49.726 66.8883C50.174 67.159 50.524 67.537 50.776 68.0223C51.0187 68.4983 51.14 69.0677 51.14 69.7303ZM51 64.3598L40.78 64.3598L40.78 58.2278L42.306 58.2278L42.306 62.6378L44.966 62.6378L44.966 58.7178L46.478 58.7178L46.478 62.6378L49.474 62.6378L49.474 58.2278L51 58.2278L51 64.3598ZM51 55.9653L40.78 55.9653L40.78 49.8333L42.306 49.8333L42.306 54.2433L44.966 54.2433L44.966 50.3233L46.478 50.3233L46.478 54.2433L49.474 54.2433L49.474 49.8333L51 49.8333L51 55.9653ZM51 47.3607L40.78 47.3607L40.78 45.6107L49.376 45.6107L49.376 41.2707L51 41.2707L51 47.3607ZM51 37.0902L47.29 37.0902L40.78 40.0862L40.78 38.2522L44.322 36.6562C44.602 36.5349 44.8773 36.4322 45.148 36.3482C45.4187 36.2642 45.6287 36.2082 45.778 36.1802C45.6287 36.1429 45.4187 36.0869 45.148 36.0122C44.8773 35.9282 44.602 35.8255 44.322 35.7042L40.78 34.1502L40.78 32.3302L47.29 35.3262L51 35.3262L51 37.0902Z" fill="white"/>
    </svg>
    