<svg
    xmlns="http://www.w3.org/2000/svg"
    width="40"
    height="40"
    viewBox="0 0 40 40"
    fill="none"
>
    <g clipPath="url(#clip0_642_1387)">
        <path
            d="M0 20C0 31.0457 8.9543 40 20 40C31.0457 40 40 31.0457 40 20C40 8.9543 31.0457 0 20 0C8.9543 0 0 8.9543 0 20Z"
            fill="#6F9034"
        />
        <path
            d="M19.9998 11.4998C22.7498 11.4998 23.1248 11.4998 24.2498 11.4998C25.2498 11.4998 25.7498 11.7498 26.1248 11.8748C26.6248 12.1248 26.9998 12.2498 27.3748 12.6248C27.7498 12.9998 27.9998 13.3748 28.1248 13.8748C28.2498 14.2498 28.3748 14.7498 28.4998 15.7498C28.4998 16.8748 28.4998 17.1248 28.4998 19.9998C28.4998 22.8748 28.4998 23.1248 28.4998 24.2498C28.4998 25.2498 28.2498 25.7498 28.1248 26.1248C27.8748 26.6248 27.7498 26.9998 27.3748 27.3748C26.9998 27.7498 26.6248 27.9998 26.1248 28.1248C25.7498 28.2498 25.2498 28.3748 24.2498 28.4998C23.1248 28.4998 22.8748 28.4998 19.9998 28.4998C17.1248 28.4998 16.8748 28.4998 15.7498 28.4998C14.7498 28.4998 14.2498 28.2498 13.8748 28.1248C13.3748 27.8748 12.9998 27.7498 12.6248 27.3748C12.2498 26.9998 11.9998 26.6248 11.8748 26.1248C11.7498 25.7498 11.6248 25.2498 11.4998 24.2498C11.4998 23.1248 11.4998 22.8748 11.4998 19.9998C11.4998 17.1248 11.4998 16.8748 11.4998 15.7498C11.4998 14.7498 11.7498 14.2498 11.8748 13.8748C12.1248 13.3748 12.2498 12.9998 12.6248 12.6248C12.9998 12.2498 13.3748 11.9998 13.8748 11.8748C14.2498 11.7498 14.7498 11.6248 15.7498 11.4998C16.8748 11.4998 17.2498 11.4998 19.9998 11.4998ZM19.9998 9.62476C17.1248 9.62476 16.8748 9.62476 15.7498 9.62476C14.6248 9.62476 13.8748 9.87476 13.2498 10.1248C12.6248 10.3748 11.9998 10.7498 11.3748 11.3748C10.7498 11.9998 10.4998 12.4998 10.1248 13.2498C9.87476 13.8748 9.74976 14.6248 9.62476 15.7498C9.62476 16.8748 9.62476 17.2498 9.62476 19.9998C9.62476 22.8748 9.62476 23.1248 9.62476 24.2498C9.62476 25.3748 9.87476 26.1248 10.1248 26.7498C10.3748 27.3748 10.7498 27.9998 11.3748 28.6248C11.9998 29.2498 12.4998 29.4998 13.2498 29.8748C13.8748 30.1248 14.6248 30.2498 15.7498 30.3748C16.8748 30.3748 17.2498 30.3748 19.9998 30.3748C22.7498 30.3748 23.1248 30.3748 24.2498 30.3748C25.3748 30.3748 26.1248 30.1248 26.7498 29.8748C27.3748 29.6248 27.9998 29.2498 28.6248 28.6248C29.2498 27.9998 29.4998 27.4998 29.8748 26.7498C30.1248 26.1248 30.2498 25.3748 30.3748 24.2498C30.3748 23.1248 30.3748 22.7498 30.3748 19.9998C30.3748 17.2498 30.3748 16.8748 30.3748 15.7498C30.3748 14.6248 30.1248 13.8748 29.8748 13.2498C29.6248 12.6248 29.2498 11.9998 28.6248 11.3748C27.9998 10.7498 27.4998 10.4998 26.7498 10.1248C26.1248 9.87476 25.3748 9.74976 24.2498 9.62476C23.1248 9.62476 22.8748 9.62476 19.9998 9.62476Z"
            fill="white"
        />
        <path
            d="M19.9998 14.6248C16.9998 14.6248 14.6248 16.9998 14.6248 19.9998C14.6248 22.9998 16.9998 25.3748 19.9998 25.3748C22.9998 25.3748 25.3748 22.9998 25.3748 19.9998C25.3748 16.9998 22.9998 14.6248 19.9998 14.6248ZM19.9998 23.4998C18.1248 23.4998 16.4998 21.9998 16.4998 19.9998C16.4998 18.1248 17.9998 16.4998 19.9998 16.4998C21.8748 16.4998 23.4998 17.9998 23.4998 19.9998C23.4998 21.8748 21.8748 23.4998 19.9998 23.4998Z"
            fill="white"
        />
        <path
            d="M25.4995 15.7493C26.1897 15.7493 26.7493 15.1898 26.7493 14.4995C26.7493 13.8093 26.1897 13.2498 25.4995 13.2498C24.8093 13.2498 24.2498 13.8093 24.2498 14.4995C24.2498 15.1898 24.8093 15.7493 25.4995 15.7493Z"
            fill="white"
        />
    </g>
    <defs>
        <clipPath id="clip0_642_1387">
            <rect width="40" height="40" fill="white" />
        </clipPath>
    </defs>
</svg>