<svg width="91" height="217" viewBox="0 0 91 217" fill="none" xmlns="http://www.w3.org/2000/svg">
<mask id="path-1-inside-1_642_1505" fill="white">
<path d="M0 0H91V217H0V0Z"/>
</mask>
<path d="M90 0V217H92V0H90Z" fill="#BBBBBA" mask="url(#path-1-inside-1_642_1505)"/>
<path d="M51 215.762L40.78 215.762L40.78 212.626C40.78 211.637 41.018 210.853 41.494 210.274C41.9607 209.695 42.6 209.406 43.412 209.406C43.8693 209.406 44.266 209.509 44.602 209.714C44.938 209.919 45.1993 210.199 45.386 210.554C45.5727 210.899 45.666 211.301 45.666 211.758L45.61 211.758C45.6007 211.263 45.694 210.825 45.89 210.442C46.0767 210.05 46.3567 209.742 46.73 209.518C47.1033 209.285 47.556 209.168 48.088 209.168C48.676 209.168 49.1893 209.303 49.628 209.574C50.0667 209.845 50.4073 210.227 50.65 210.722C50.8833 211.207 51 211.791 51 212.472L51 215.762ZM49.544 214.054L49.544 212.584C49.544 212.071 49.4087 211.669 49.138 211.38C48.858 211.081 48.48 210.932 48.004 210.932C47.528 210.932 47.1453 211.081 46.856 211.38C46.5573 211.669 46.408 212.071 46.408 212.584L46.408 214.054L49.544 214.054ZM44.994 214.054L44.994 212.654C44.994 212.187 44.8727 211.823 44.63 211.562C44.378 211.291 44.0373 211.156 43.608 211.156C43.1787 211.156 42.8427 211.291 42.6 211.562C42.3573 211.823 42.236 212.187 42.236 212.654L42.236 214.054L44.994 214.054ZM51 207.745L40.78 207.745L40.78 206.233L44.854 206.233L44.854 205.785C44.854 204.945 45.092 204.287 45.568 203.811C46.044 203.335 46.6973 203.097 47.528 203.097L48.34 203.097C49.1613 203.097 49.81 203.335 50.286 203.811C50.762 204.287 51 204.945 51 205.785L51 207.745ZM49.6 206.233L49.6 205.785C49.6 205.403 49.4927 205.104 49.278 204.889C49.054 204.675 48.7367 204.567 48.326 204.567L47.542 204.567C47.1313 204.567 46.814 204.675 46.59 204.889C46.366 205.104 46.254 205.403 46.254 205.785L46.254 206.233L49.6 206.233ZM51 202.257L40.78 202.257L40.78 200.745L51 200.745L51 202.257ZM51 198.959L40.78 198.959L40.78 192.827L42.404 192.827L42.404 197.251L44.882 197.251L44.882 195.753C44.882 195.062 45.008 194.469 45.26 193.975C45.512 193.471 45.8667 193.079 46.324 192.799C46.7813 192.519 47.318 192.379 47.934 192.379C48.55 192.379 49.0867 192.519 49.544 192.799C50.0013 193.079 50.3607 193.471 50.622 193.975C50.874 194.469 51 195.057 51 195.739L51 198.959ZM49.502 197.251L49.502 195.739C49.502 195.244 49.362 194.857 49.082 194.577C48.802 194.297 48.424 194.157 47.948 194.157C47.4627 194.157 47.08 194.297 46.8 194.577C46.52 194.857 46.38 195.244 46.38 195.739L46.38 197.251L49.502 197.251ZM51 190.424L40.78 190.424L40.78 184.292L42.306 184.292L42.306 188.702L44.966 188.702L44.966 184.782L46.478 184.782L46.478 188.702L49.474 188.702L49.474 184.292L51 184.292L51 190.424ZM51 182.184L40.78 182.184L40.78 178.782C40.78 178.1 40.9107 177.508 41.172 177.004C41.4333 176.49 41.802 176.094 42.278 175.814C42.7447 175.534 43.2953 175.394 43.93 175.394C44.5553 175.394 45.106 175.538 45.582 175.828C46.058 176.108 46.4267 176.5 46.688 177.004C46.9493 177.508 47.08 178.1 47.08 178.782L47.08 180.434L51 180.434L51 182.184ZM45.498 180.434L45.498 178.782C45.498 178.296 45.358 177.909 45.078 177.62C44.7887 177.321 44.406 177.172 43.93 177.172C43.4447 177.172 43.062 177.321 42.782 177.62C42.502 177.909 42.362 178.296 42.362 178.782L42.362 180.434L45.498 180.434ZM51 173.859L40.78 173.859L40.78 172.263L45.778 172.263C46.1047 172.263 46.4687 172.273 46.87 172.291C47.2713 172.31 47.6633 172.333 48.046 172.361C48.4287 172.389 48.76 172.413 49.04 172.431L40.78 169.617L40.78 167.475L51 167.475L51 169.071L46.156 169.071C45.8293 169.071 45.456 169.062 45.036 169.043C44.616 169.025 44.2007 169.001 43.79 168.973C43.3793 168.936 43.0293 168.903 42.74 168.875L51 171.717L51 173.859ZM51.14 153.822C51.14 154.475 51.0187 155.049 50.776 155.544C50.524 156.029 50.174 156.407 49.726 156.678C49.2687 156.939 48.732 157.07 48.116 157.07L43.664 157.07C43.0387 157.07 42.502 156.939 42.054 156.678C41.606 156.407 41.2607 156.029 41.018 155.544C40.766 155.049 40.64 154.475 40.64 153.822C40.64 153.159 40.766 152.59 41.018 152.114C41.2607 151.629 41.606 151.251 42.054 150.98C42.502 150.709 43.0387 150.574 43.664 150.574L43.664 152.338C43.1787 152.338 42.81 152.469 42.558 152.73C42.306 152.982 42.18 153.346 42.18 153.822C42.18 154.298 42.306 154.667 42.558 154.928C42.81 155.189 43.174 155.32 43.65 155.32L48.116 155.32C48.592 155.32 48.9607 155.189 49.222 154.928C49.474 154.667 49.6 154.298 49.6 153.822C49.6 153.346 49.474 152.982 49.222 152.73C48.9607 152.469 48.592 152.338 48.116 152.338L48.116 150.574C48.7227 150.574 49.2547 150.709 49.712 150.98C50.1693 151.251 50.524 151.629 50.776 152.114C51.0187 152.59 51.14 153.159 51.14 153.822ZM51 148.606L40.78 148.606L40.78 145.47C40.78 144.48 41.018 143.696 41.494 143.118C41.9607 142.539 42.6 142.25 43.412 142.25C43.8693 142.25 44.266 142.352 44.602 142.558C44.938 142.763 45.1993 143.043 45.386 143.398C45.5727 143.743 45.666 144.144 45.666 144.602L45.61 144.602C45.6007 144.107 45.694 143.668 45.89 143.286C46.0767 142.894 46.3567 142.586 46.73 142.362C47.1033 142.128 47.556 142.012 48.088 142.012C48.676 142.012 49.1893 142.147 49.628 142.418C50.0667 142.688 50.4073 143.071 50.65 143.566C50.8833 144.051 51 144.634 51 145.316L51 148.606ZM49.544 146.898L49.544 145.428C49.544 144.914 49.4087 144.513 49.138 144.224C48.858 143.925 48.48 143.776 48.004 143.776C47.528 143.776 47.1453 143.925 46.856 144.224C46.5573 144.513 46.408 144.914 46.408 145.428L46.408 146.898L49.544 146.898ZM44.994 146.898L44.994 145.498C44.994 145.031 44.8727 144.667 44.63 144.406C44.378 144.135 44.0373 144 43.608 144C43.1787 144 42.8427 144.135 42.6 144.406C42.3573 144.667 42.236 145.031 42.236 145.498L42.236 146.898L44.994 146.898ZM51.14 137.089C51.14 137.742 51.0187 138.312 50.776 138.797C50.524 139.273 50.174 139.642 49.726 139.903C49.2687 140.155 48.732 140.281 48.116 140.281L43.664 140.281C43.048 140.281 42.516 140.155 42.068 139.903C41.6107 139.642 41.2607 139.273 41.018 138.797C40.766 138.312 40.64 137.742 40.64 137.089C40.64 136.426 40.766 135.857 41.018 135.381C41.2607 134.905 41.6107 134.541 42.068 134.289C42.516 134.028 43.0433 133.897 43.65 133.897L48.116 133.897C48.732 133.897 49.2687 134.028 49.726 134.289C50.174 134.541 50.524 134.905 50.776 135.381C51.0187 135.857 51.14 136.426 51.14 137.089ZM49.6 137.089C49.6 136.613 49.474 136.254 49.222 136.011C48.9607 135.768 48.592 135.647 48.116 135.647L43.664 135.647C43.1787 135.647 42.81 135.768 42.558 136.011C42.306 136.254 42.18 136.613 42.18 137.089C42.18 137.565 42.306 137.924 42.558 138.167C42.81 138.41 43.1787 138.531 43.664 138.531L48.116 138.531C48.592 138.531 48.9607 138.41 49.222 138.167C49.474 137.915 49.6 137.556 49.6 137.089ZM51 131.887L40.78 131.887L40.78 130.291L45.778 130.291C46.1047 130.291 46.4687 130.3 46.87 130.319C47.2713 130.337 47.6633 130.361 48.046 130.389C48.4287 130.417 48.76 130.44 49.04 130.459L40.78 127.645L40.78 125.503L51 125.503L51 127.099L46.156 127.099C45.8293 127.099 45.456 127.089 45.036 127.071C44.616 127.052 44.2007 127.029 43.79 127.001C43.3793 126.963 43.0293 126.931 42.74 126.903L51 129.745L51 131.887ZM39.772 128.695C39.772 129.423 39.5807 130.011 39.198 130.459C38.8153 130.907 38.316 131.131 37.7 131.131L37.7 129.773C38.008 129.773 38.2553 129.675 38.442 129.479C38.6287 129.283 38.722 129.021 38.722 128.695C38.722 128.368 38.6287 128.107 38.442 127.911C38.2553 127.705 38.008 127.603 37.7 127.603L37.7 126.245C38.316 126.245 38.8153 126.469 39.198 126.917C39.5807 127.365 39.772 127.957 39.772 128.695ZM51 115.615L40.78 113.039L40.78 110.785L51 108.195L51 109.987L48.522 110.547L48.522 113.263L51 113.823L51 115.615ZM47.094 112.941L47.094 110.869L44.35 111.485C43.8927 111.588 43.482 111.677 43.118 111.751C42.7447 111.826 42.474 111.877 42.306 111.905C42.474 111.933 42.7447 111.985 43.118 112.059C43.482 112.125 43.888 112.213 44.336 112.325L47.094 112.941ZM51 106.633L40.78 106.633L40.78 103.497C40.78 102.508 41.018 101.724 41.494 101.145C41.9607 100.566 42.6 100.277 43.412 100.277C43.8693 100.277 44.266 100.38 44.602 100.585C44.938 100.79 45.1993 101.07 45.386 101.425C45.5727 101.77 45.666 102.172 45.666 102.629L45.61 102.629C45.6007 102.134 45.694 101.696 45.89 101.313C46.0767 100.921 46.3567 100.613 46.73 100.389C47.1033 100.156 47.556 100.039 48.088 100.039C48.676 100.039 49.1893 100.174 49.628 100.445C50.0667 100.716 50.4073 101.098 50.65 101.593C50.8833 102.078 51 102.662 51 103.343L51 106.633ZM49.544 104.925L49.544 103.455C49.544 102.942 49.4087 102.54 49.138 102.251C48.858 101.952 48.48 101.803 48.004 101.803C47.528 101.803 47.1453 101.952 46.856 102.251C46.5573 102.54 46.408 102.942 46.408 103.455L46.408 104.925L49.544 104.925ZM44.994 104.925L44.994 103.525C44.994 103.058 44.8727 102.694 44.63 102.433C44.378 102.162 44.0373 102.027 43.608 102.027C43.1787 102.027 42.8427 102.162 42.6 102.433C42.3573 102.694 42.236 103.058 42.236 103.525L42.236 104.925L44.994 104.925ZM51 95.9984L42.404 95.9984L42.404 98.6724L40.78 98.6724L40.78 91.5604L42.404 91.5604L42.404 94.2344L51 94.2344L51 95.9984ZM51.14 86.7219C51.14 87.3752 51.0187 87.9445 50.776 88.4299C50.524 88.9059 50.174 89.2745 49.726 89.5359C49.2687 89.7879 48.732 89.9139 48.116 89.9139L43.664 89.9139C43.048 89.9139 42.516 89.7879 42.068 89.5359C41.6107 89.2745 41.2607 88.9059 41.018 88.4299C40.766 87.9445 40.64 87.3752 40.64 86.7219C40.64 86.0592 40.766 85.4899 41.018 85.0139C41.2607 84.5379 41.6107 84.1739 42.068 83.9219C42.516 83.6605 43.0433 83.5299 43.65 83.5299L48.116 83.5299C48.732 83.5299 49.2687 83.6605 49.726 83.9219C50.174 84.1739 50.524 84.5379 50.776 85.0139C51.0187 85.4899 51.14 86.0592 51.14 86.7219ZM49.6 86.7219C49.6 86.2459 49.474 85.8865 49.222 85.6439C48.9607 85.4012 48.592 85.2799 48.116 85.2799L43.664 85.2799C43.1787 85.2799 42.81 85.4012 42.558 85.6439C42.306 85.8865 42.18 86.2459 42.18 86.7219C42.18 87.1979 42.306 87.5572 42.558 87.7999C42.81 88.0425 43.1787 88.1639 43.664 88.1639L48.116 88.1639C48.592 88.1639 48.9607 88.0425 49.222 87.7999C49.474 87.5479 49.6 87.1885 49.6 86.7219ZM51 81.7433L40.78 81.7433L40.78 79.6713L44.028 78.6773C44.3547 78.5747 44.6533 78.4907 44.924 78.4253C45.1947 78.36 45.3907 78.318 45.512 78.2993C45.3907 78.2807 45.1947 78.2387 44.924 78.1733C44.6533 78.108 44.3547 78.0287 44.028 77.9353L40.78 76.9833L40.78 74.9113L51 74.9113L51 76.5493L47.822 76.5493C47.3553 76.5493 46.8467 76.5353 46.296 76.5073C45.7453 76.4793 45.1947 76.4467 44.644 76.4093C44.0933 76.372 43.5707 76.33 43.076 76.2833C42.5813 76.2273 42.1473 76.1807 41.774 76.1433L46.604 77.5153L46.604 79.1113L41.774 80.5253C42.1287 80.4787 42.5487 80.432 43.034 80.3853C43.51 80.3387 44.0233 80.2967 44.574 80.2593C45.1153 80.2127 45.666 80.1753 46.226 80.1473C46.786 80.1193 47.318 80.1053 47.822 80.1053L51 80.1053L51 81.7433ZM51.14 69.9328C51.14 70.5861 51.0187 71.1555 50.776 71.6408C50.524 72.1168 50.174 72.4855 49.726 72.7468C49.2687 72.9988 48.732 73.1248 48.116 73.1248L43.664 73.1248C43.048 73.1248 42.516 72.9988 42.068 72.7468C41.6107 72.4855 41.2607 72.1168 41.018 71.6408C40.766 71.1555 40.64 70.5861 40.64 69.9328C40.64 69.2701 40.766 68.7008 41.018 68.2248C41.2607 67.7488 41.6107 67.3848 42.068 67.1328C42.516 66.8715 43.0433 66.7408 43.65 66.7408L48.116 66.7408C48.732 66.7408 49.2687 66.8715 49.726 67.1328C50.174 67.3848 50.524 67.7488 50.776 68.2248C51.0187 68.7008 51.14 69.2701 51.14 69.9328ZM49.6 69.9328C49.6 69.4568 49.474 69.0975 49.222 68.8548C48.9607 68.6121 48.592 68.4908 48.116 68.4908L43.664 68.4908C43.1787 68.4908 42.81 68.6121 42.558 68.8548C42.306 69.0975 42.18 69.4568 42.18 69.9328C42.18 70.4088 42.306 70.7681 42.558 71.0108C42.81 71.2535 43.1787 71.3748 43.664 71.3748L48.116 71.3748C48.592 71.3748 48.9607 71.2535 49.222 71.0108C49.474 70.7588 49.6 70.3995 49.6 69.9328ZM51 64.6463L40.78 64.6463L40.78 58.5143L42.404 58.5143L42.404 62.9383L44.882 62.9383L44.882 61.4403C44.882 60.7496 45.008 60.1569 45.26 59.6623C45.512 59.1583 45.8667 58.7663 46.324 58.4863C46.7813 58.2063 47.318 58.0663 47.934 58.0663C48.55 58.0663 49.0867 58.2063 49.544 58.4863C50.0013 58.7663 50.3607 59.1583 50.622 59.6623C50.874 60.1569 51 60.7449 51 61.4263L51 64.6463ZM49.502 62.9383L49.502 61.4263C49.502 60.9316 49.362 60.5443 49.082 60.2643C48.802 59.9843 48.424 59.8443 47.948 59.8443C47.4627 59.8443 47.08 59.9843 46.8 60.2643C46.52 60.5443 46.38 60.9316 46.38 61.4263L46.38 62.9383L49.502 62.9383ZM51 56.3357L40.78 56.3357L40.78 54.7397L45.778 54.7397C46.1047 54.7397 46.4687 54.7491 46.87 54.7677C47.2713 54.7864 47.6633 54.8097 48.046 54.8377C48.4287 54.8657 48.76 54.8891 49.04 54.9077L40.78 52.0937L40.78 49.9517L51 49.9517L51 51.5477L46.156 51.5477C45.8293 51.5477 45.456 51.5384 45.036 51.5197C44.616 51.5011 44.2007 51.4777 43.79 51.4497C43.3793 51.4124 43.0293 51.3797 42.74 51.3517L51 54.1937L51 56.3357ZM51.07 48.7112L49.474 48.7112L49.474 48.3612C49.474 48.0439 49.3247 47.8012 49.026 47.6332C48.718 47.4652 48.256 47.3766 47.64 47.3672L40.78 47.2552L40.78 41.6412L51 41.6412L51 43.3912L42.404 43.3912L42.404 45.5332L47.64 45.6312C48.7507 45.6406 49.6 45.8739 50.188 46.3312C50.776 46.7886 51.07 47.4279 51.07 48.2492L51.07 48.7112ZM51 39.4627L40.78 39.4627L40.78 37.7127L44.854 37.7127L44.854 36.1027C44.854 35.412 44.9847 34.8147 45.246 34.3107C45.498 33.7974 45.8527 33.4007 46.31 33.1207C46.7673 32.8314 47.304 32.6867 47.92 32.6867C48.536 32.6867 49.0773 32.8314 49.544 33.1207C50.0013 33.4007 50.3607 33.7974 50.622 34.3107C50.874 34.8147 51 35.412 51 36.1027L51 39.4627ZM49.46 37.7127L49.46 36.1307C49.46 35.6267 49.32 35.2254 49.04 34.9267C48.76 34.6187 48.3913 34.4647 47.934 34.4647C47.4673 34.4647 47.094 34.6187 46.814 34.9267C46.534 35.2254 46.394 35.6267 46.394 36.1307L46.394 37.7127L49.46 37.7127Z" fill="#1F1F1E"/>
</svg>
