<svg
    xmlns="http://www.w3.org/2000/svg"
    width="40"
    height="40"
    viewBox="0 0 40 40"
    fill="none"
>
    <g clipPath="url(#clip0_642_1395)">
        <path
            d="M0 20C0 31.0457 8.9543 40 20 40C31.0457 40 40 31.0457 40 20C40 8.9543 31.0457 0 20 0C8.9543 0 0 8.9543 0 20Z"
            fill="#6F9034"
        />
        <path
            d="M10.1249 19.6353C15.4936 17.2963 19.0735 15.7543 20.8648 15.0092C25.9792 12.882 27.0418 12.5125 27.7345 12.5001C27.887 12.4976 28.2275 12.5353 28.4482 12.7144C28.6345 12.8655 28.6858 13.0698 28.7103 13.2131C28.7348 13.3564 28.7653 13.683 28.7412 13.9381C28.464 16.8502 27.2647 23.9168 26.6547 27.1783C26.3965 28.5585 25.8882 29.0212 25.396 29.0665C24.3267 29.1648 23.5145 28.3597 22.4787 27.6807C20.8578 26.6182 19.9422 25.9568 18.3688 24.92C16.5505 23.7218 17.7292 23.0632 18.7655 21.987C19.0367 21.7053 23.7487 17.4193 23.8398 17.0305C23.8513 16.9818 23.8618 16.8007 23.7542 16.705C23.6465 16.6092 23.4877 16.6419 23.373 16.668C23.2103 16.7048 20.621 18.4163 15.6049 21.8023C14.8699 22.307 14.2042 22.553 13.6077 22.54C12.9501 22.5258 11.6853 22.1683 10.745 21.8627C9.59166 21.4877 8.67503 21.2895 8.75485 20.6528C8.79641 20.3212 9.2531 19.982 10.1249 19.6353Z"
            fill="white"
        />
    </g>
    <defs>
        <clipPath id="clip0_642_1395">
            <rect width="40" height="40" fill="white" />
        </clipPath>
    </defs>
</svg>