<svg xmlns="http://www.w3.org/2000/svg" width="25" height="24" viewBox="0 0 25 24" fill="none">
    <path d="M6.62319 8.78982C6.52946 8.88278 6.45507 8.99338 6.4043 9.11524C6.35353 9.2371 6.32739 9.36781 6.32739 9.49982C6.32739 9.63183 6.35353 9.76253 6.4043 9.88439C6.45507 10.0063 6.52946 10.1169 6.62319 10.2098L11.6232 15.2098C11.7162 15.3035 11.8268 15.3779 11.9486 15.4287C12.0705 15.4795 12.2012 15.5056 12.3332 15.5056C12.4652 15.5056 12.5959 15.4795 12.7178 15.4287C12.8396 15.3779 12.9502 15.3035 13.0432 15.2098L18.0432 10.2098C18.1369 10.1169 18.2113 10.0063 18.2621 9.88439C18.3129 9.76253 18.339 9.63183 18.339 9.49982C18.339 9.3678 18.3129 9.2371 18.2621 9.11524C18.2113 8.99338 18.1369 8.88278 18.0432 8.78982C17.9502 8.69609 17.8396 8.62169 17.7178 8.57093C17.5959 8.52016 17.4652 8.49402 17.3332 8.49402C17.2012 8.49402 17.0705 8.52016 16.9486 8.57093C16.8268 8.62169 16.7162 8.69609 16.6232 8.78982L12.3332 13.0898L8.04319 8.78982C7.95023 8.69609 7.83963 8.62169 7.71777 8.57093C7.59591 8.52016 7.4652 8.49402 7.33319 8.49402C7.20118 8.49402 7.07047 8.52016 6.94861 8.57093C6.82675 8.62169 6.71615 8.69609 6.62319 8.78982Z" fill="#1F1F1E"/>
  </svg>