<svg xmlns="http://www.w3.org/2000/svg" width="20" height="20" viewBox="0 0 20 20" fill="none">
    <path
        d="M10 12.5C11.3807 12.5 12.5 11.3807 12.5 10C12.5 8.61929 11.3807 7.5 10 7.5C8.61929 7.5 7.5 8.61929 7.5 10C7.5 11.3807 8.61929 12.5 10 12.5Z"
        stroke="#1F1F1E" stroke-width="1.5" />
    <path
        d="M11.4707 1.79317C11.1649 1.6665 10.7766 1.6665 9.99989 1.6665C9.22322 1.6665 8.83489 1.6665 8.52905 1.79317C8.3267 1.87693 8.14285 1.99975 7.98799 2.15461C7.83313 2.30946 7.71032 2.49332 7.62655 2.69567C7.54989 2.8815 7.51905 3.099 7.50739 3.41484C7.50219 3.64316 7.43905 3.86642 7.3239 4.06365C7.20874 4.26087 7.04534 4.42559 6.84905 4.54234C6.6498 4.65404 6.42542 4.71325 6.197 4.71442C5.96857 4.71559 5.7436 4.65867 5.54322 4.549C5.26322 4.40067 5.06072 4.319 4.85989 4.29234C4.42182 4.23473 3.9788 4.35343 3.62822 4.62234C3.36655 4.82484 3.17155 5.16067 2.78322 5.83317C2.39489 6.50567 2.19989 6.8415 2.15739 7.17067C2.12875 7.38771 2.14315 7.60827 2.19978 7.81975C2.2564 8.03123 2.35413 8.22947 2.48739 8.40317C2.61072 8.56317 2.78322 8.69734 3.05072 8.86567C3.44489 9.11317 3.69822 9.53484 3.69822 9.99984C3.69822 10.4648 3.44489 10.8865 3.05072 11.1332C2.78322 11.3023 2.60989 11.4365 2.48739 11.5965C2.35413 11.7702 2.2564 11.9684 2.19978 12.1799C2.14315 12.3914 2.12875 12.612 2.15739 12.829C2.20072 13.1573 2.39489 13.494 2.78239 14.1665C3.17155 14.839 3.36572 15.1748 3.62822 15.3773C3.80192 15.5106 4.00017 15.6083 4.21164 15.6649C4.42312 15.7216 4.64368 15.736 4.86072 15.7073C5.06072 15.6807 5.26322 15.599 5.54322 15.4507C5.7436 15.341 5.96857 15.2841 6.197 15.2853C6.42542 15.2864 6.6498 15.3456 6.84905 15.4573C7.25155 15.6907 7.49072 16.1198 7.50739 16.5848C7.51905 16.9015 7.54905 17.1182 7.62655 17.304C7.71032 17.5064 7.83313 17.6902 7.98799 17.8451C8.14285 17.9999 8.3267 18.1227 8.52905 18.2065C8.83489 18.3332 9.22322 18.3332 9.99989 18.3332C10.7766 18.3332 11.1649 18.3332 11.4707 18.2065C11.6731 18.1227 11.8569 17.9999 12.0118 17.8451C12.1666 17.6902 12.2895 17.5064 12.3732 17.304C12.4499 17.1182 12.4807 16.9015 12.4924 16.5848C12.5091 16.1198 12.7482 15.6898 13.1507 15.4573C13.35 15.3456 13.5744 15.2864 13.8028 15.2853C14.0312 15.2841 14.2562 15.341 14.4566 15.4507C14.7366 15.599 14.9391 15.6807 15.1391 15.7073C15.3561 15.736 15.5767 15.7216 15.7881 15.6649C15.9996 15.6083 16.1979 15.5106 16.3716 15.3773C16.6341 15.1757 16.8282 14.839 17.2166 14.1665C17.6049 13.494 17.7999 13.1582 17.8424 12.829C17.871 12.612 17.8566 12.3914 17.8 12.1799C17.7434 11.9684 17.6456 11.7702 17.5124 11.5965C17.3891 11.4365 17.2166 11.3023 16.9491 11.134C16.7538 11.0153 16.592 10.849 16.4787 10.6506C16.3655 10.4522 16.3045 10.2283 16.3016 9.99984C16.3016 9.53484 16.5549 9.11317 16.9491 8.8665C17.2166 8.69734 17.3899 8.56317 17.5124 8.40317C17.6456 8.22947 17.7434 8.03123 17.8 7.81975C17.8566 7.60827 17.871 7.38771 17.8424 7.17067C17.7991 6.84234 17.6049 6.50567 17.2174 5.83317C16.8282 5.16067 16.6341 4.82484 16.3716 4.62234C16.1979 4.48908 15.9996 4.39135 15.7881 4.33473C15.5767 4.2781 15.3561 4.2637 15.1391 4.29234C14.9391 4.319 14.7366 4.40067 14.4557 4.549C14.2554 4.65852 14.0306 4.71536 13.8024 4.71419C13.5741 4.71302 13.3499 4.65389 13.1507 4.54234C12.9544 4.42559 12.791 4.26087 12.6759 4.06365C12.5607 3.86642 12.4976 3.64316 12.4924 3.41484C12.4807 3.09817 12.4507 2.8815 12.3732 2.69567C12.2895 2.49332 12.1666 2.30946 12.0118 2.15461C11.8569 1.99975 11.6731 1.87693 11.4707 1.79317Z"
        stroke="#1F1F1E" stroke-width="1.5" />
</svg>